<?xml version="1.0" encoding="UTF-8"?>
<svg id="_レイヤー_2" data-name="レイヤー 2" xmlns="http://www.w3.org/2000/svg" viewBox="0 0 97.43 34.93">
  <defs>
    <style>
      .cls-1 {
        fill: #231815;
      }

      .cls-1, .cls-2, .cls-3 {
        stroke-width: 0px;
      }

      .cls-2 {
        fill: #040000;
      }

      .cls-3 {
        fill: #16957f;
      }
    </style>
  </defs>
  <g id="_レイヤー_1-2" data-name="レイヤー 1">
    <g>
      <g>
        <path class="cls-2" d="m16.12,34.88c-.16-.26-.28-.46-.36-.63-.32-.62-.47-1.28-.47-1.97,0-.52.09-1.03.28-1.53.09-.24.21-.48.35-.72.04-.08.12-.19.21-.34h.88c-.2.28-.34.5-.44.67-.17.31-.29.64-.37.99-.07.31-.11.62-.11.93,0,.53.1,1.04.29,1.52.09.22.21.45.35.67.06.09.15.23.28.41h-.88Z"/>
        <path class="cls-2" d="m18.54,32.64h-.31c-.22,0-.39,0-.52.02.01-.12.02-.29.02-.5v-.54c0-.21,0-.37-.02-.49.11.01.29.02.53.02h1.22c.23,0,.4,0,.51-.02-.02.12-.02.28-.02.48v.56c0,.21,0,.37.02.49-.13-.01-.3-.02-.5-.02h-.26v1.58c0,.22-.05.37-.14.46-.06.06-.14.09-.25.11-.09.02-.21.02-.35.02-.05,0-.13,0-.23,0-.02-.23-.07-.45-.14-.66-.04.11-.09.23-.15.38-.18-.16-.37-.29-.57-.39.22-.4.35-.84.39-1.33l.57.13c-.04.47-.12.88-.24,1.22.11.02.21.02.3.02.06,0,.09,0,.11-.03.01-.01.02-.04.02-.09v-1.42Zm-.03-2.39v-.09c0-.19,0-.33-.02-.42h.75c-.02.09-.02.22-.02.4v.11h.44c.22,0,.4,0,.52-.03v.69c-.13-.02-.31-.02-.53-.02h-1.64c-.23,0-.4,0-.53.03v-.7c.12.02.29.03.52.03h.5Zm-.1,1.46v.35h.88v-.35h-.88Zm2.95-.7h.58c-.07-.14-.13-.25-.18-.35-.1-.16-.22-.34-.37-.53l.48-.33c.21.24.41.51.59.81l-.52.4c.23,0,.4-.01.51-.03v.72c-.13-.02-.31-.02-.54-.02h-.62c-.01.1-.03.2-.04.29h.5c-.01.11-.02.24-.02.41v1.62s0,.06,0,.07c.01.02.04.03.1.03.07,0,.12-.02.14-.07.03-.07.04-.34.04-.8,0-.03,0-.07,0-.13.16.11.34.19.53.24,0,.42-.03.72-.06.92-.02.15-.07.27-.13.34-.07.08-.16.13-.28.16-.08.01-.19.02-.33.02s-.24,0-.32-.02c-.15-.03-.24-.1-.29-.2-.02-.05-.03-.13-.03-.23l.02-1.68c-.14.55-.33,1.03-.57,1.44-.17.29-.37.57-.62.83-.16-.22-.33-.41-.51-.57.12-.11.24-.23.35-.37.12-.16.22-.3.29-.41l-.5.28c-.07-.29-.17-.59-.32-.91l.48-.2c.12.22.23.49.35.81.31-.54.5-1.16.57-1.86h-.04c-.23,0-.4,0-.51.02v-.72c.11.02.28.03.51.03h.09c.01-.35.02-.6.02-.75,0-.19,0-.36-.03-.49h.72c-.02.11-.03.28-.03.52,0,.24-.01.48-.03.73Z"/>
        <path class="cls-2" d="m24.06,30.89c-.12-.31-.28-.59-.48-.85l.66-.23c.12.17.21.31.28.44.08.13.15.28.22.46l-.5.2h1.16c-.1-.31-.26-.64-.48-.98l.65-.19c.2.3.37.61.49.95l-.67.23h.88c.26-.42.44-.81.55-1.15l.7.24c-.2.39-.37.69-.51.9h.34c.21,0,.39,0,.54-.02-.01.11-.02.27-.02.46v.41c0,.16,0,.31.03.44h-.72v-.65h-3.28v.65h-.72c.02-.14.02-.28.03-.44v-.41c0-.19,0-.35-.02-.47.15.01.32.02.53.02h.33Zm1.7,1.42h1.16c.22,0,.42,0,.58-.02-.01.08-.02.19-.03.35-.03.81-.1,1.37-.19,1.68-.07.22-.2.36-.41.42-.14.04-.32.06-.54.06-.09,0-.26,0-.53-.02-.02-.27-.08-.51-.17-.73.23.04.45.06.64.06.13,0,.22-.02.26-.05.05-.03.08-.11.11-.22.05-.21.08-.51.09-.89h-1.08c-.12.49-.36.89-.72,1.2-.19.17-.46.33-.8.5-.13.06-.29.13-.49.2-.12-.27-.26-.49-.42-.66.43-.1.81-.28,1.15-.53.28-.21.46-.45.54-.72h-.68c-.31,0-.54.01-.67.03v-.7c.12.02.34.03.66.03h.8c.01-.15.02-.27.02-.37,0-.09,0-.18-.01-.26h.78c-.01.06-.02.17-.03.33,0,.09-.01.19-.02.3Z"/>
        <path class="cls-2" d="m31.43,31.63s-.02-.02-.03-.03c-.11-.13-.23-.25-.37-.36-.1.06-.2.13-.31.2-.05-.1-.12-.19-.19-.27v.65c-.09-.01-.22-.02-.37-.02h-.14l.02.04c.07.12.13.21.19.28.09.12.22.24.37.38-.09.15-.18.35-.29.63-.12-.13-.23-.28-.34-.46.01.11.02.28.02.52v.99c0,.3.01.53.03.7h-.73c.02-.16.03-.39.03-.7v-.77c0-.21.01-.39.02-.55-.13.4-.32.75-.57,1.06-.07-.25-.18-.49-.31-.71.16-.17.32-.4.48-.71.14-.27.24-.5.29-.69h-.25c-.17,0-.31,0-.41.03v-.69c.09.02.23.03.41.03h.33v-.49c-.12.03-.29.05-.51.09-.04-.18-.12-.39-.24-.62.47-.04.93-.15,1.37-.31.12-.04.22-.1.3-.16l.4.58-.03.02c-.18.08-.38.16-.61.23v.66h.16c.16,0,.27,0,.35-.02-.06-.07-.13-.14-.2-.2.22-.11.43-.24.63-.4.27-.22.46-.43.58-.62.06-.12.09-.19.1-.21l.7.17s-.05.09-.1.16c-.02.03-.04.07-.07.11h.51c.19,0,.33,0,.43-.02l.35.38c-.05.08-.11.16-.16.25-.17.27-.35.49-.52.67-.14.14-.3.27-.47.4l.43.1s-.05.08-.09.14c-.02.03-.05.08-.09.13h.33c.19,0,.33,0,.43-.02l.37.41-.02.03s-.04.08-.08.16l-.04.08c-.16.33-.37.63-.62.89-.29.31-.69.59-1.21.83-.31.14-.66.24-1.06.31-.08-.24-.2-.46-.34-.67.33-.03.62-.09.88-.18.18-.06.37-.14.54-.24-.15-.16-.3-.29-.46-.39-.14.09-.3.18-.46.25-.1-.19-.24-.36-.42-.53.35-.13.68-.31,1.01-.56.2-.15.36-.3.49-.46-.33.21-.7.37-1.09.5-.09-.2-.21-.39-.38-.57.27-.07.5-.14.69-.22.11-.04.23-.1.36-.17Zm.52-.34c.09-.07.17-.14.25-.21.09-.08.15-.14.19-.18.03-.03.07-.09.14-.19h-.86c-.05.05-.11.11-.19.18.16.12.31.25.47.4Zm-.22,1.75c.22.15.39.28.51.39.09-.07.17-.14.24-.22.11-.12.22-.27.34-.45h-.78c-.1.1-.2.19-.3.27Z"/>
        <path class="cls-2" d="m37.51,32.05h-.92c-.27,0-.5.01-.69.03v-.66c-.04.05-.08.12-.13.19-.12.18-.22.31-.3.39v2.15c0,.3.01.54.04.7h-.77c.02-.15.03-.39.04-.71v-.83c0-.18,0-.39,0-.64-.06.07-.14.14-.22.22-.07.07-.15.13-.22.18-.09-.3-.19-.54-.3-.72.2-.12.39-.27.58-.45.35-.33.6-.65.75-.95l.58.41c.19.02.41.03.66.03h1.81c.32,0,.55-.01.68-.03v.72c-.19-.02-.41-.03-.66-.03h-.19v2.09c0,.19-.03.33-.08.41-.07.1-.18.17-.33.2-.1.02-.3.04-.58.04-.15,0-.31,0-.49,0-.03-.25-.09-.49-.18-.73.31.04.55.05.72.05.1,0,.17,0,.2-.02.02-.01.04-.05.04-.1v-1.93Zm-3.08-.65c-.12-.28-.25-.5-.38-.63.38-.2.72-.45,1-.75.11-.12.19-.24.24-.34l.6.44s-.05.06-.11.12l-.11.11c-.24.25-.45.46-.63.61-.19.15-.39.3-.62.43Zm1.68-.73v-.72c.14.02.36.03.66.03h1.44c.29,0,.5-.01.64-.03v.72c-.18-.02-.39-.03-.63-.03h-1.45c-.26,0-.48.01-.66.03Z"/>
        <path class="cls-2" d="m41.69,30.39v-.17c0-.22-.01-.39-.03-.49h.82c-.02.1-.03.26-.03.49v.17h1.37c.33,0,.56-.01.71-.03v.73c-.13-.02-.37-.03-.7-.03h-1.38v.62h.72c.22,0,.37,0,.46-.03l.42.43s-.09.12-.19.26c-.2.3-.41.57-.64.81-.14.14-.28.27-.42.39.54.28,1.15.46,1.85.54-.13.22-.24.48-.34.77-.49-.1-.91-.23-1.25-.37-.33-.14-.63-.3-.92-.47-.65.4-1.39.68-2.2.82-.08-.24-.2-.48-.34-.71.76-.1,1.4-.29,1.93-.56-.12-.11-.24-.22-.34-.34-.17-.18-.34-.42-.52-.7l.54-.21h-.47c-.27,0-.5.01-.66.03v-.7c.14.02.37.03.69.03h.92v-.62h-1.3c-.31,0-.54.01-.69.03v-.73c.15.02.38.03.7.03h1.29Zm.48,2.78c.33-.25.6-.53.82-.86h-1.65c.11.15.2.27.28.36.16.19.34.35.55.49Z"/>
        <path class="cls-2" d="m47.56,31.8h-.17c-.18,0-.33,0-.47.02v-.57c.08.01.2.02.33.02h.04c-.02-.06-.04-.12-.07-.18-.07-.14-.13-.25-.19-.34l.56-.17s.03.06.05.09c.06.11.11.21.14.28.02.06.04.11.07.17l-.47.14h.87c-.06-.21-.14-.41-.24-.6l.56-.16c.05.09.09.19.14.31.04.11.08.22.1.3l-.47.15h.63c.05-.08.1-.17.14-.26.11-.23.18-.43.23-.6l.65.16c-.16.33-.29.56-.38.71h.05c.17,0,.3,0,.4-.03v.58c-.15-.01-.32-.02-.53-.02h-1.3c-.02.11-.03.19-.04.25h1.32c.29,0,.51,0,.63-.03v.62s-.11-.01-.17-.02c-.16-.01-.31-.02-.46-.02h-1.44c-.02.07-.04.14-.06.21h1.04c.24,0,.39,0,.46-.02l.34.39c-.04.05-.11.14-.19.26-.14.19-.3.36-.48.53.3.11.65.19,1.05.22-.11.22-.21.45-.28.69-.3-.07-.56-.15-.79-.24-.17-.07-.35-.15-.53-.26-.15.09-.32.18-.52.26-.16.07-.28.12-.36.15-.05.02-.14.05-.27.07-.06-.15-.14-.31-.26-.48-.12.15-.25.29-.4.43-.11-.22-.25-.41-.41-.57,0,.14-.02.23-.04.28-.03.09-.08.15-.14.19-.11.07-.3.1-.57.1-.08,0-.2,0-.37-.01-.01-.24-.06-.46-.14-.67.19.02.34.04.46.04.05,0,.09,0,.11-.03.02-.02.03-.06.03-.13v-1.11l-.07.02-.07.02c-.09.03-.15.05-.2.06-.05.01-.11.04-.19.06l-.12-.72c.06,0,.12-.01.18-.02.03,0,.14-.03.35-.08.05-.01.08-.02.11-.03v-.87h-.21c-.12,0-.25,0-.37.02v-.69c.11.02.23.03.37.03h.2v-.42c0-.24,0-.43-.03-.56h.72c-.02.13-.03.32-.03.56v.42h.13c.09,0,.17,0,.26-.02v.67c-.09-.01-.17-.02-.26-.02h-.13v.68c.08-.02.19-.06.33-.12v.64c-.18.07-.29.11-.33.13v1.53c.08-.07.15-.13.22-.2.13-.12.26-.29.4-.52.17-.27.3-.57.39-.9h-.06c-.21,0-.37,0-.49.02v-.61c.15.02.32.03.5.02h.16c.01-.1.03-.18.03-.25Zm-.64-1.22c-.04-.19-.1-.37-.2-.56h.18c.75,0,1.44-.06,2.09-.17.29-.05.48-.1.59-.15l.45.55s-.08.01-.14.03c-.26.05-.73.11-1.4.19-.51.05-1.04.09-1.57.11Zm.77,3.05c-.11.24-.23.45-.36.62.09-.02.25-.07.48-.14.1-.03.19-.07.27-.11-.17-.14-.29-.27-.39-.37Zm.47-.28c.13.12.27.24.42.34.07-.06.13-.11.17-.15.05-.04.1-.11.17-.19h-.77Z"/>
        <path class="cls-2" d="m53.19,31.55c.2,0,.36.07.51.22.14.14.21.32.21.52s-.07.38-.21.52c-.14.14-.31.22-.51.22s-.37-.07-.51-.22c-.14-.14-.21-.32-.21-.52,0-.16.05-.31.14-.44.15-.2.34-.31.6-.31Z"/>
        <path class="cls-2" d="m58.05,30.39c.13-.27.21-.51.24-.71l.81.07c-.12.3-.21.51-.27.64h1.24c.29,0,.52,0,.67-.02-.02.15-.03.37-.03.67v3.15c0,.28.01.49.03.64h-.75v-.26h-2.54v.26h-.74c.02-.15.03-.36.03-.64v-3.15c0-.29,0-.52-.03-.67.15.02.37.02.67.02h.67Zm-.6.67v.51h2.55v-.51h-2.55Zm0,1.16v.5h2.55v-.5h-2.55Zm0,1.16v.52h2.55v-.52h-2.55Z"/>
        <path class="cls-2" d="m64.38,33.92c.07-.15.14-.35.23-.6.21-.57.37-1.14.49-1.7.02-.11.04-.2.04-.29l.83.24c-.03.09-.09.28-.18.57-.1.34-.24.74-.41,1.2-.08.22-.16.41-.23.57h.85c.32,0,.57-.01.73-.04v.76c-.16-.02-.4-.04-.73-.04h-3.48c-.33,0-.58.01-.74.04v-.76c.16.03.41.04.74.04h1.86Zm-.53-3.42v-.34c0-.14-.01-.28-.03-.41h.8c-.03.11-.04.25-.04.41v.34h1.23c.34,0,.58-.01.73-.04v.76c-.17-.02-.41-.04-.73-.04h-3.13c-.32,0-.56.01-.72.04v-.76c.14.02.38.04.72.04h1.17Zm-1.29,1.11l.71-.26c.2.54.41,1.25.62,2.14l-.74.25c-.07-.36-.16-.76-.28-1.18-.1-.34-.2-.66-.32-.95Z"/>
        <path class="cls-2" d="m69.37,30.39v-.17c0-.22-.01-.39-.03-.49h.82c-.02.1-.03.26-.03.49v.17h1.37c.33,0,.56-.01.71-.03v.73c-.13-.02-.36-.03-.7-.03h-1.38v.62h.72c.22,0,.38,0,.46-.03l.42.43s-.09.12-.19.26c-.2.3-.41.57-.64.81-.14.14-.28.27-.42.39.54.28,1.15.46,1.85.54-.13.22-.24.48-.33.77-.49-.1-.91-.23-1.25-.37-.33-.14-.63-.3-.92-.47-.65.4-1.39.68-2.2.82-.08-.24-.2-.48-.34-.71.76-.1,1.4-.29,1.93-.56-.12-.11-.24-.22-.34-.34-.17-.18-.34-.42-.52-.7l.54-.21h-.47c-.27,0-.5.01-.67.03v-.7c.14.02.37.03.69.03h.92v-.62h-1.3c-.31,0-.54.01-.69.03v-.73c.15.02.38.03.7.03h1.29Zm.48,2.78c.33-.25.6-.53.82-.86h-1.65c.11.15.2.27.28.36.16.19.34.35.55.49Z"/>
        <path class="cls-2" d="m75.23,31.8h-.17c-.18,0-.33,0-.47.02v-.57c.08.01.2.02.33.02h.04c-.02-.06-.04-.12-.07-.18-.07-.14-.13-.25-.19-.34l.56-.17s.03.06.05.09c.06.11.11.21.14.28.02.06.04.11.07.17l-.47.14h.86c-.06-.21-.14-.41-.24-.6l.56-.16c.05.09.09.19.14.31.04.11.08.22.1.3l-.47.15h.63c.05-.08.1-.17.14-.26.11-.23.18-.43.23-.6l.65.16c-.16.33-.29.56-.38.71h.05c.17,0,.3,0,.4-.03v.58c-.15-.01-.32-.02-.53-.02h-1.3c-.02.11-.03.19-.04.25h1.32c.29,0,.51,0,.63-.03v.62s-.11-.01-.17-.02c-.16-.01-.31-.02-.46-.02h-1.44c-.02.07-.04.14-.06.21h1.04c.24,0,.39,0,.46-.02l.34.39c-.04.05-.11.14-.19.26-.14.19-.3.36-.48.53.3.11.65.19,1.05.22-.11.22-.21.45-.28.69-.3-.07-.56-.15-.79-.24-.17-.07-.35-.15-.53-.26-.15.09-.32.18-.52.26-.16.07-.28.12-.36.15-.05.02-.14.05-.27.07-.06-.15-.14-.31-.26-.48-.12.15-.25.29-.4.43-.11-.22-.25-.41-.41-.57,0,.14-.02.23-.04.28-.03.09-.08.15-.14.19-.11.07-.3.1-.57.1-.08,0-.2,0-.37-.01-.01-.24-.06-.46-.14-.67.19.02.34.04.46.04.05,0,.09,0,.11-.03.02-.02.03-.06.03-.13v-1.11l-.07.02-.07.02c-.09.03-.16.05-.2.06-.05.01-.11.04-.19.06l-.12-.72c.06,0,.12-.01.18-.02.03,0,.14-.03.35-.08.05-.01.08-.02.11-.03v-.87h-.21c-.12,0-.25,0-.37.02v-.69c.11.02.23.03.38.03h.2v-.42c0-.24,0-.43-.03-.56h.72c-.02.13-.03.32-.03.56v.42h.13c.09,0,.17,0,.26-.02v.67c-.09-.01-.17-.02-.26-.02h-.13v.68c.08-.02.19-.06.33-.12v.64c-.18.07-.29.11-.33.13v1.53c.08-.07.15-.13.22-.2.13-.12.26-.29.4-.52.17-.27.3-.57.38-.9h-.06c-.21,0-.37,0-.49.02v-.61c.15.02.32.03.5.02h.16c.01-.1.03-.18.03-.25Zm-.64-1.22c-.04-.19-.1-.37-.2-.56h.18c.74,0,1.44-.06,2.09-.17.29-.05.48-.1.59-.15l.45.55s-.08.01-.14.03c-.26.05-.73.11-1.4.19-.51.05-1.04.09-1.57.11Zm.77,3.05c-.11.24-.23.45-.36.62.1-.02.26-.07.48-.14.1-.03.19-.07.27-.11-.17-.14-.29-.27-.39-.37Zm.47-.28c.13.12.27.24.42.34.07-.06.13-.11.17-.15.05-.04.1-.11.17-.19h-.77Z"/>
        <path class="cls-2" d="m79.18,34.88h-.88c.2-.28.34-.5.44-.67.17-.31.29-.64.37-.99.07-.31.11-.62.11-.93,0-.53-.1-1.04-.29-1.51-.09-.22-.21-.45-.35-.67-.06-.1-.15-.23-.29-.41h.88c.16.26.28.46.36.63.32.62.47,1.28.47,1.97,0,.53-.09,1.04-.28,1.53-.09.24-.21.48-.35.72-.04.08-.11.19-.21.34Z"/>
      </g>
      <g>
        <path class="cls-3" d="m97.43,3.54c0-1.96-1.59-3.54-3.54-3.54s-3.54,1.59-3.54,3.54c0,.08,0,.15,0,.22-1.64-1.04-3.59-1.64-5.68-1.64h-8.5v10.63c0,2.94,2.38,5.31,5.31,5.31h3.19s0,2.8,0,2.8c0,.67-.27,1.28-.7,1.73-.68.67-1.82.78-1.82.78h3.61c.23,0,.75-.02,1.03-.06,3.91-.58,8.5-4.62,8.5-10.57,0-2.09-.6-4.03-1.64-5.68.07,0,.15,0,.22,0,1.96,0,3.54-1.59,3.54-3.54Zm-5.67,0c0-1.17.95-2.13,2.13-2.13s2.13.95,2.13,2.13-.95,2.13-2.13,2.13-2.13-.95-2.13-2.13Z"/>
        <g>
          <path class="cls-1" d="m40.94,4.68h-1.31l-1.66,7.69-.89-3.27c-.14-.52-.61-.9-1.17-.9h-2.78l-1.12,4.17v-.02s-1.46-6.74-1.46-6.74h0c-.13-.55-.61-.92-1.15-.93h-1.54l.21.96,2.37,10.86c.04.12.09.23.17.38.16.29.58.6.97.6h1.38l.1-.31,1.93-6.08,1.72,5.41c.04.12.09.23.17.38.16.29.58.6.97.6h0,1.49s2.6-11.93,2.6-11.99c.09-.8-.67-.81-1-.81Z"/>
          <path class="cls-1" d="m66.22,12.92l3.09-3.09c.36-.36.36-.95,0-1.31-.18-.18-.42-.27-.66-.27h0s-1.19,0-1.19,0l-3.87,3.87v-6.18c0-.67-.54-1.21-1.21-1.21h-1.21v11.59c0,.67.54,1.21,1.21,1.21h1.21v-1.98l.91-.91,2.55,2.55c.23.23.52.34.82.34h2.95l-4.6-4.6Z"/>
          <path class="cls-1" d="m46.39,8.15c-2.61,0-4.73,2.12-4.73,4.73s2.12,4.73,4.73,4.73,4.73-2.12,4.73-4.73-2.12-4.73-4.73-4.73Zm0,7.14c-1.28,0-2.32-1.08-2.32-2.41s1.04-2.41,2.32-2.41,2.32,1.08,2.32,2.41-1.04,2.41-2.32,2.41Z"/>
          <path class="cls-1" d="m56.45,8.15h-.09c-1.21,0-1.96.82-1.96.82,0,0-.04-.43-.35-.59-.17-.09-.36-.14-.56-.14h-1.21v8.07c0,.67.54,1.21,1.21,1.21h1.21v-5.2c0-1.02.74-1.85,1.66-1.85h4.08c-.81-1.39-2.29-2.32-3.99-2.32Z"/>
          <path class="cls-3" d="m11.11,12.9c0,2.63,2.13,4.76,4.76,4.76s4.76-2.13,4.76-4.76c0-2.63-2.13-4.76-4.76-4.76s-4.76,2.13-4.76,4.76Zm2.43,0c0-1.34,1.05-2.43,2.34-2.43,1.29,0,2.34,1.09,2.34,2.43s-1.05,2.43-2.34,2.43-2.34-1.09-2.34-2.43Z"/>
          <path class="cls-3" d="m27.17,10.44v-1.1c0-.61-.49-1.1-1.1-1.1h-1.8v-2.33c0-.67-.55-1.22-1.22-1.22h-1.22v10.64c0,1.3,1.09,2.35,2.44,2.35s2.44-1.05,2.44-2.35h-1.97c-.26,0-.47-.21-.47-.47v-4.41s2.91,0,2.91,0Z"/>
          <path class="cls-3" d="m3.83,4.68H0v11.81s0,0,0,0c.07.59.56,1.05,1.16,1.08h0s.05,0,.05,0h2.61c3.56,0,6.45-2.89,6.45-6.45s-2.89-6.45-6.45-6.45Zm0,10.45h-1.39V7.12h1.39c2.17,0,3.92,1.79,3.92,4s-1.76,4-3.92,4Z"/>
        </g>
      </g>
    </g>
  </g>
</svg>