<?xml version="1.0" encoding="UTF-8" standalone="no"?>
<!DOCTYPE svg PUBLIC "-//W3C//DTD SVG 1.1//EN" "http://www.w3.org/Graphics/SVG/1.1/DTD/svg11.dtd">
<svg width="100%" height="100%" viewBox="0 0 139 139" version="1.1" xmlns="http://www.w3.org/2000/svg" xmlns:xlink="http://www.w3.org/1999/xlink" xml:space="preserve" xmlns:serif="http://www.serif.com/" style="fill-rule:evenodd;clip-rule:evenodd;stroke-linejoin:round;stroke-miterlimit:2;">
    <g>
        <g>
            <g transform="matrix(1,0,0,1,91.942,-28.664)">
                <path d="M27.29,81.087C27.372,81.098 27.452,81.114 27.532,81.135C27.598,81.148 27.663,81.164 27.727,81.184C27.745,81.19 27.764,81.191 27.782,81.198C27.83,81.215 27.872,81.243 27.918,81.264C27.986,81.294 28.053,81.327 28.118,81.364C28.182,81.401 28.239,81.443 28.298,81.485C28.357,81.527 28.406,81.562 28.456,81.605C28.512,81.655 28.566,81.708 28.617,81.764C28.66,81.81 28.703,81.855 28.742,81.905C28.787,81.964 28.829,82.025 28.867,82.089C28.902,82.144 28.936,82.198 28.967,82.256C28.998,82.314 29.026,82.388 29.052,82.456C29.078,82.524 29.1,82.579 29.119,82.642C29.138,82.715 29.154,82.79 29.166,82.865C29.177,82.927 29.189,82.988 29.194,83.051C29.199,83.135 29.199,83.219 29.194,83.303C29.194,83.347 29.199,83.39 29.194,83.434C29.194,83.451 29.187,83.466 29.185,83.483C29.177,83.551 29.161,83.618 29.146,83.683C29.132,83.757 29.114,83.831 29.091,83.903C29.084,83.923 29.083,83.944 29.075,83.965C28.758,84.837 28.596,85.757 28.596,86.684C28.596,90.775 31.749,94.233 35.822,94.611C36.924,94.717 37.775,95.655 37.775,96.762C37.775,97.945 36.805,98.919 35.622,98.923C35.554,98.923 35.486,98.923 35.422,98.913C29.14,98.33 24.278,92.995 24.278,86.687C24.278,86.089 24.322,85.492 24.409,84.9C19.25,83.333 15.699,78.543 15.699,73.151C15.699,71.722 15.948,70.303 16.436,68.96C16.745,68.107 17.56,67.535 18.468,67.535C19.654,67.535 20.629,68.51 20.629,69.696C20.629,69.947 20.585,70.196 20.5,70.432C20.183,71.304 20.021,72.224 20.021,73.151C20.021,77.242 23.174,80.7 27.247,81.078C27.262,81.078 27.276,81.085 27.291,81.087" style="fill:rgb(0,0,255);fill-rule:nonzero;"/>
            </g>
            <g transform="matrix(1,0,0,1,-175.369,-28.664)">
                <path d="M202.637,70.433C202.559,70.207 202.519,69.969 202.519,69.73C202.519,68.545 203.495,67.569 204.68,67.569C205.575,67.569 206.382,68.125 206.7,68.961C207.188,70.304 207.437,71.722 207.437,73.151C207.437,78.543 203.886,83.334 198.727,84.901C198.814,85.493 198.858,86.09 198.858,86.688C198.858,92.997 193.995,98.331 187.713,98.914C187.647,98.921 187.58,98.924 187.513,98.924C187.508,98.924 187.503,98.924 187.498,98.924C186.313,98.924 185.338,97.949 185.338,96.764C185.338,95.649 186.202,94.708 187.313,94.612C191.387,94.234 194.54,90.775 194.54,86.684C194.54,85.757 194.378,84.837 194.061,83.965C194.054,83.944 194.052,83.924 194.045,83.903C194.022,83.832 194.006,83.757 193.99,83.683C193.974,83.617 193.961,83.55 193.951,83.483C193.951,83.466 193.943,83.451 193.942,83.434L193.942,83.303C193.937,83.219 193.937,83.135 193.942,83.051C193.948,82.988 193.96,82.927 193.97,82.865C193.982,82.79 193.997,82.716 194.017,82.643C194.06,82.511 194.11,82.382 194.169,82.257C194.198,82.199 194.233,82.145 194.269,82.09C194.305,82.035 194.348,81.965 194.394,81.906C194.44,81.847 194.476,81.812 194.519,81.765C194.569,81.709 194.623,81.656 194.679,81.606C194.729,81.563 194.779,81.525 194.837,81.486C194.895,81.443 194.955,81.402 195.017,81.365C195.082,81.328 195.149,81.295 195.217,81.265C195.263,81.244 195.304,81.217 195.353,81.199C195.371,81.193 195.389,81.192 195.407,81.185C195.471,81.164 195.537,81.15 195.607,81.135C195.686,81.115 195.766,81.099 195.846,81.088C195.861,81.088 195.875,81.081 195.89,81.079C199.964,80.701 203.117,77.242 203.117,73.151C203.117,72.224 202.955,71.304 202.638,70.432" style="fill:rgb(0,0,255);fill-rule:nonzero;"/>
            </g>
            <g transform="matrix(1,0,0,1,-43.533,-55.214)">
                <path d="M104.809,138.667C104.809,133.961 108.681,130.089 113.387,130.089C118.093,130.089 121.965,133.961 121.965,138.667C121.965,143.373 118.093,147.245 113.387,147.245C113.387,147.245 113.386,147.245 113.386,147.245C108.682,147.24 104.814,143.371 104.809,138.667" style="fill:rgb(0,0,255);fill-rule:nonzero;"/>
            </g>
            <g transform="matrix(1,0,0,1,26.972,0)">
                <path d="M83.84,23.458C83.513,23.566 83.17,23.621 82.826,23.621C81.43,23.621 80.184,22.718 79.749,21.392C76.834,12.519 68.498,6.483 59.159,6.483C55.762,6.483 52.412,7.282 49.381,8.814C48.926,9.046 48.422,9.167 47.911,9.167C46.133,9.167 44.67,7.704 44.67,5.926C44.67,4.701 45.364,3.577 46.459,3.028C50.396,1.038 54.747,0.001 59.159,0.001C71.29,0.001 82.12,7.842 85.907,19.368C86.462,21.057 85.53,22.903 83.841,23.459" style="fill:rgb(0,0,255);fill-rule:nonzero;"/>
            </g>
            <g transform="matrix(1,0,0,1,113.001,-18.388)">
                <path d="M19.053,84.714C17.277,84.712 15.816,83.249 15.816,81.473C15.816,80.966 15.935,80.466 16.163,80.014C19.013,74.381 19.261,67.775 16.844,61.943C14.43,56.109 9.581,51.612 3.582,49.643C2.226,49.225 1.295,47.964 1.295,46.546C1.295,44.768 2.758,43.305 4.536,43.305C4.901,43.305 5.264,43.366 5.608,43.487C13.399,46.044 19.696,51.884 22.832,59.461C25.972,67.035 25.65,75.616 21.949,82.933C21.398,84.026 20.273,84.716 19.049,84.714" style="fill:rgb(0,0,255);fill-rule:nonzero;"/>
            </g>
            <g transform="matrix(1,0,0,1,113.003,-52.26)">
                <path d="M17.593,123.479C18.046,123.25 18.547,123.131 19.054,123.131C20.275,123.131 21.397,123.821 21.947,124.911C25.648,132.229 25.971,140.81 22.832,148.386C19.696,155.962 13.399,161.801 5.608,164.357C5.269,164.473 4.914,164.533 4.556,164.533C2.778,164.533 1.315,163.07 1.315,161.292C1.315,159.88 2.237,158.624 3.583,158.2C9.582,156.232 14.43,151.735 16.842,145.9C19.259,140.068 19.01,133.461 16.161,127.827C15.932,127.374 15.813,126.874 15.813,126.366C15.813,125.146 16.503,124.024 17.593,123.474" style="fill:rgb(0,0,255);fill-rule:nonzero;"/>
            </g>
            <g transform="matrix(1,0,0,1,26.974,-83.752)">
                <path d="M49.38,212.135C52.411,213.667 55.761,214.466 59.158,214.466C68.497,214.466 76.834,208.429 79.748,199.555C80.144,198.167 81.421,197.202 82.865,197.202C84.643,197.202 86.106,198.665 86.106,200.443C86.106,200.831 86.036,201.216 85.9,201.58C82.116,213.106 71.287,220.949 59.155,220.949C54.743,220.949 50.392,219.911 46.454,217.92C45.364,217.37 44.674,216.248 44.674,215.028C44.674,213.25 46.137,211.787 47.915,211.787C48.423,211.787 48.923,211.906 49.376,212.135" style="fill:rgb(0,0,255);fill-rule:nonzero;"/>
            </g>
            <g transform="matrix(1,0,0,1,-98.769,-83.753)">
                <path d="M124.649,201.583C124.55,201.268 124.5,200.94 124.5,200.61C124.5,198.832 125.963,197.369 127.741,197.369C129.122,197.369 130.358,198.252 130.806,199.558C133.72,208.431 142.057,214.467 151.396,214.467C154.793,214.467 158.143,213.669 161.174,212.136C161.627,211.907 162.127,211.788 162.635,211.788C164.413,211.788 165.876,213.251 165.876,215.029C165.876,216.249 165.186,217.371 164.096,217.921C160.158,219.912 155.807,220.949 151.395,220.949C139.264,220.949 128.435,213.107 124.649,201.582" style="fill:rgb(0,0,255);fill-rule:nonzero;"/>
            </g>
            <g transform="matrix(1,0,0,1,-197.9,-52.262)">
                <path d="M220.074,158.2C221.413,158.628 222.328,159.881 222.328,161.287C222.328,163.065 220.865,164.528 219.087,164.528C218.734,164.528 218.383,164.47 218.048,164.357C206.522,160.571 198.681,149.742 198.681,137.61C198.681,133.199 199.718,128.848 201.708,124.911C202.265,123.84 203.376,123.166 204.583,123.166C206.361,123.166 207.824,124.629 207.824,126.407C207.824,126.901 207.711,127.388 207.494,127.832C205.961,130.864 205.162,134.214 205.162,137.611C205.162,146.95 211.2,155.287 220.074,158.2" style="fill:rgb(0,0,255);fill-rule:nonzero;"/>
            </g>
            <g transform="matrix(1,0,0,1,-197.903,-18.389)">
                <path d="M220.074,49.646C211.203,52.561 205.168,60.897 205.168,70.235C205.168,73.632 205.967,76.982 207.5,80.014C207.74,80.476 207.866,80.989 207.866,81.51C207.866,83.288 206.403,84.751 204.625,84.751C203.389,84.751 202.257,84.045 201.714,82.935C199.724,78.998 198.687,74.647 198.687,70.235C198.687,58.105 206.526,47.277 218.05,43.489C218.389,43.373 218.744,43.313 219.102,43.313C220.88,43.313 222.343,44.776 222.343,46.554C222.343,47.966 221.421,49.222 220.075,49.646" style="fill:rgb(0,0,255);fill-rule:nonzero;"/>
            </g>
            <g transform="matrix(1,0,0,1,-98.773,0)">
                <path d="M161.176,8.813C158.145,7.28 154.795,6.482 151.398,6.482C142.058,6.482 133.721,12.519 130.808,21.393C130.36,22.699 129.124,23.582 127.743,23.582C125.965,23.582 124.502,22.119 124.502,20.341C124.502,20.011 124.552,19.683 124.651,19.368C128.437,7.842 139.266,-0 151.398,-0C155.811,-0 160.162,1.037 164.1,3.028C165.185,3.58 165.871,4.699 165.871,5.916C165.871,7.694 164.408,9.157 162.63,9.157C162.126,9.157 161.629,9.04 161.178,8.814" style="fill:rgb(0,0,255);fill-rule:nonzero;"/>
            </g>
            <g transform="matrix(1,0,0,1,-182.337,-77.991)">
                <path d="M182.378,186.823C182.469,185.113 183.901,183.755 185.614,183.755C187.392,183.755 188.855,185.218 188.855,186.996C188.855,187.053 188.853,187.111 188.85,187.168C188.829,187.554 188.819,187.941 188.819,188.328C188.819,200.217 198.602,210 210.491,210C211.193,210 211.894,209.966 212.593,209.898C212.697,209.888 212.801,209.883 212.906,209.883C214.683,209.883 216.146,211.346 216.146,213.123C216.146,214.783 214.871,216.188 213.219,216.348C212.306,216.437 211.395,216.481 210.486,216.48C195.044,216.479 182.338,203.771 182.338,188.329C182.338,187.826 182.351,187.324 182.378,186.822" style="fill:rgb(0,0,255);fill-rule:nonzero;"/>
            </g>
            <g transform="matrix(1,0,0,1,104.948,-77.991)">
                <path d="M3.554,209.9C4.254,209.968 4.957,210.003 5.66,210.003C17.549,210.003 27.331,200.22 27.331,188.332C27.331,187.944 27.321,187.556 27.3,187.168C27.297,187.111 27.295,187.053 27.295,186.996C27.295,185.218 28.758,183.755 30.536,183.755C32.249,183.755 33.681,185.113 33.772,186.823C33.799,187.325 33.812,187.827 33.812,188.33C33.812,203.773 21.104,216.482 5.661,216.482C4.753,216.482 3.84,216.438 2.928,216.349C1.276,216.189 0.001,214.784 0.001,213.124C0.001,211.347 1.464,209.884 3.241,209.884C3.346,209.884 3.45,209.889 3.554,209.899" style="fill:rgb(0,0,255);fill-rule:nonzero;"/>
            </g>
            <g transform="matrix(1,0,0,1,12.223,-48.549)">
                <path d="M83.055,119.066C83.055,121.971 81.373,123.745 79.298,123.745C77.223,123.745 75.541,121.972 75.541,119.066C75.541,116.16 77.223,114.387 79.298,114.387C81.373,114.387 83.055,116.16 83.055,119.066" style="fill:rgb(0,0,255);fill-rule:nonzero;"/>
            </g>
            <g transform="matrix(1,0,0,1,-108.958,-48.55)">
                <path d="M156.21,114.388C158.285,114.388 159.967,116.161 159.967,119.067C159.967,121.973 158.285,123.746 156.21,123.746C154.135,123.746 152.453,121.973 152.453,119.067C152.453,116.161 154.135,114.388 156.21,114.388" style="fill:rgb(0,0,255);fill-rule:nonzero;"/>
            </g>
        </g>
    </g>
</svg>
