<svg xmlns="http://www.w3.org/2000/svg" xmlns:xlink="http://www.w3.org/1999/xlink" width="138.757" height="138.491" viewBox="0 0 138.757 138.491"><defs><style>.a{fill:#1a00cf;}.b{clip-path:url(#a);}</style><clipPath id="a"><rect class="a" width="138.757" height="138.491"/></clipPath></defs><g transform="translate(0 0)"><g class="b" transform="translate(0 0)"><path class="a" d="M27.29,81.087a2.1,2.1,0,0,1,.242.048,1.961,1.961,0,0,1,.195.049c.018.006.037.007.055.014.048.017.09.045.136.066a2.075,2.075,0,0,1,.2.1c.064.037.121.079.18.121s.108.077.158.12a2.1,2.1,0,0,1,.161.159c.043.046.086.091.125.141a1.989,1.989,0,0,1,.125.184c.035.055.069.109.1.167s.059.132.085.2.048.123.067.186a2.215,2.215,0,0,1,.047.223c.011.062.023.123.028.186a2.156,2.156,0,0,1,0,.252c0,.044.005.087,0,.131,0,.017-.007.032-.009.049-.008.068-.024.135-.039.2a1.99,1.99,0,0,1-.055.22c-.007.02-.008.041-.016.062a7.961,7.961,0,0,0,6.747,10.646,2.161,2.161,0,0,1-.2,4.312c-.068,0-.136,0-.2-.01A12.279,12.279,0,0,1,24.409,84.9a12.279,12.279,0,0,1-7.973-15.94A2.16,2.16,0,1,1,20.5,70.432a7.961,7.961,0,0,0,6.747,10.646c.015,0,.029.007.044.009" transform="translate(91.942 -28.664)"/><path class="a" d="M202.637,70.433a2.161,2.161,0,0,1,4.063-1.472,12.28,12.28,0,0,1-7.973,15.94,12.279,12.279,0,0,1-11.014,14.013,2.026,2.026,0,0,1-.2.01,2.16,2.16,0,0,1-.2-4.312,7.962,7.962,0,0,0,6.748-10.647c-.007-.021-.009-.041-.016-.062-.023-.071-.039-.146-.055-.22a2.061,2.061,0,0,1-.039-.2c0-.017-.008-.032-.009-.049,0-.044,0-.087,0-.131a2.163,2.163,0,0,1,0-.252c.006-.063.018-.124.028-.186a2.051,2.051,0,0,1,.047-.222,3.387,3.387,0,0,1,.152-.386c.029-.058.064-.112.1-.167s.079-.125.125-.184.082-.094.125-.141a2.091,2.091,0,0,1,.16-.159c.05-.043.1-.081.158-.12a2.14,2.14,0,0,1,.18-.121,2.231,2.231,0,0,1,.2-.1c.046-.021.087-.048.136-.066.018-.006.036-.007.054-.014.064-.021.13-.035.2-.05a2.167,2.167,0,0,1,.239-.047c.015,0,.029-.007.044-.009a7.962,7.962,0,0,0,6.748-10.647" transform="translate(-175.369 -28.664)"/><path class="a" d="M104.809,138.667a8.578,8.578,0,1,1,8.577,8.578,8.587,8.587,0,0,1-8.577-8.578" transform="translate(-43.533 -55.214)"/><path class="a" d="M83.84,23.458a3.238,3.238,0,0,1-4.091-2.066A21.673,21.673,0,0,0,49.381,8.814a3.241,3.241,0,1,1-2.922-5.786A28.155,28.155,0,0,1,85.907,19.368a3.241,3.241,0,0,1-2.066,4.091" transform="translate(26.972 0)"/><path class="a" d="M19.053,84.714a3.241,3.241,0,0,1-2.89-4.7,21.659,21.659,0,0,0,.681-18.071,21.665,21.665,0,0,0-13.262-12.3,3.241,3.241,0,1,1,2.026-6.156A28.138,28.138,0,0,1,22.832,59.461a28.133,28.133,0,0,1-.883,23.472,3.241,3.241,0,0,1-2.9,1.781" transform="translate(113.001 -18.388)"/><path class="a" d="M17.593,123.479a3.24,3.24,0,0,1,4.354,1.432,28.143,28.143,0,0,1,.885,23.475A28.134,28.134,0,0,1,5.608,164.357,3.241,3.241,0,1,1,3.583,158.2a21.652,21.652,0,0,0,13.259-12.3,21.668,21.668,0,0,0-.681-18.073,3.24,3.24,0,0,1,1.432-4.353" transform="translate(113.003 -52.26)"/><path class="a" d="M49.38,212.135a21.672,21.672,0,0,0,30.368-12.58A3.241,3.241,0,1,1,85.9,201.58a28.149,28.149,0,0,1-39.446,16.34,3.24,3.24,0,0,1,2.922-5.785" transform="translate(26.974 -83.752)"/><path class="a" d="M124.649,201.583a3.241,3.241,0,0,1,6.157-2.025,21.672,21.672,0,0,0,30.368,12.578,3.24,3.24,0,0,1,2.922,5.785,28.152,28.152,0,0,1-39.447-16.339" transform="translate(-98.769 -83.753)"/><path class="a" d="M220.074,158.2a3.241,3.241,0,1,1-2.026,6.157,28.153,28.153,0,0,1-16.34-39.446,3.241,3.241,0,0,1,5.786,2.921,21.67,21.67,0,0,0,12.58,30.368" transform="translate(-197.9 -52.262)"/><path class="a" d="M220.074,49.646A21.672,21.672,0,0,0,207.5,80.014a3.241,3.241,0,1,1-5.786,2.921A28.154,28.154,0,0,1,218.05,43.489a3.241,3.241,0,1,1,2.025,6.157" transform="translate(-197.903 -18.389)"/><path class="a" d="M161.176,8.813a21.671,21.671,0,0,0-30.368,12.58,3.241,3.241,0,0,1-6.157-2.025A28.153,28.153,0,0,1,164.1,3.028a3.241,3.241,0,0,1-2.922,5.786" transform="translate(-98.773 0)"/><path class="a" d="M182.378,186.823a3.24,3.24,0,0,1,6.472.345,21.672,21.672,0,0,0,23.743,22.73,3.24,3.24,0,1,1,.626,6.45q-1.37.133-2.733.132a28.151,28.151,0,0,1-28.108-29.658" transform="translate(-182.337 -77.991)"/><path class="a" d="M3.554,209.9A21.671,21.671,0,0,0,27.3,187.168a3.24,3.24,0,0,1,6.472-.345A28.152,28.152,0,0,1,5.661,216.482c-.908,0-1.821-.044-2.733-.133a3.24,3.24,0,0,1,.626-6.45" transform="translate(104.948 -77.991)"/><path class="a" d="M83.055,119.066c0,2.905-1.682,4.679-3.757,4.679s-3.757-1.773-3.757-4.679,1.682-4.679,3.757-4.679,3.757,1.773,3.757,4.679" transform="translate(12.223 -48.549)"/><path class="a" d="M156.21,114.388c2.075,0,3.757,1.773,3.757,4.679s-1.682,4.679-3.757,4.679-3.757-1.773-3.757-4.679,1.682-4.679,3.757-4.679" transform="translate(-108.958 -48.55)"/></g></g></svg>